<?xml version="1.0" encoding="utf-8"?>
<!-- Generator: Adobe Illustrator 25.2.3, SVG Export Plug-In . SVG Version: 6.00 Build 0)  -->
<svg version="1.1" id="Layer_1" xmlns="http://www.w3.org/2000/svg" xmlns:xlink="http://www.w3.org/1999/xlink" x="0px" y="0px"
	 viewBox="0 0 360 360" style="enable-background:new 0 0 360 360;" xml:space="preserve">
<style type="text/css">
	.st0{fill:#BFC5CB;}
	.st1{fill:#FFFFFF;}
</style>
<circle class="st0" cx="180" cy="180" r="180"/>
<g>
	<path class="st1" d="M289.1,250h-98.3v-7.3h97.9c7.2-1.6,12.3-8.1,12.3-15.6V101.2c0-9.2-6.8-15.6-16.5-15.6H134.8
		c-9.3,0-16.5,6.9-16.5,15.6v18.4H111v-18.4c0-12.9,10.5-23,23.9-23h149.7c13.8,0,23.9,9.7,23.9,23V227c0,11.1-7.8,20.7-18.6,22.9
		C289.6,250,289.3,250,289.1,250z"/>
	<path class="st1" d="M134.8,228L134.8,228c1.8,0,3.7,0,5.5,0.9c7.3,0.9,13.8,4.6,19.3,10.1c8.3,7.3,11.9,16.5,11,27.6
		c0,5.5-5.5,11-11,11c-6.4,0-11.9,0-18.4,0c-12.9,0-12.9,0-12.9,0c-12.9,0-12.9,0-12.9,0c-0.9,0-0.9,0-0.9,0c-12.9,0-12.9,0-12.9,0
		c-13.8,0-13.8,0-13.8,0c-5.5,0-11,0-17.4,0c-2.8,0-6.4-1.8-8.3-3.7c-2.8-2.8-3.7-5.5-3.7-9.2c0-18.4,13.8-34,32.1-36.7
		c0.9,0,1.8,0,2.8,0c1.8,0,4.6,0.9,8.3,1.8c3.7,0.9,8.3,1.8,12.9,1.8c5.5,0,11-0.9,16.5-2.8C132,228,133.9,228,134.8,228
		 M134.8,220.6c-1.8,0-3.7,0.9-5.5,0.9c-4.6,1.8-10.1,2.8-14.7,2.8c-3.7,0-7.3-0.9-11-1.8c-3.7-0.9-6.4-0.9-10.1-0.9
		c-0.9,0-2.8,0-3.7,0c-22,2.8-38.6,21.1-38.6,43.2c0,11,8.3,19.3,19.3,19.3c6.4,0,11.9,0,17.4,0c9.2,0,17.4,0,26.6,0h0.9
		c8.3,0,17.4,0,25.7,0c6.4,0,11.9,0,18.4,0c9.2,0,18.4-7.3,18.4-17.4c0-12.9-4.6-23.9-12.9-33.1c-6.4-6.4-14.7-10.1-23.9-11.9
		C139.4,221.5,136.6,220.6,134.8,220.6L134.8,220.6z"/>
	<path class="st1" d="M114.6,132.5c0,7.3,0,7.3,0,7.3c17.4,0,31.2,13.8,31.2,30.3c0,17.4-13.8,31.2-31.2,31.2s-30.3-12.9-31.2-31.2
		c0-8.3,3.7-15.6,9.2-22c6.4-5.5,13.8-8.3,22-8.3C114.6,132.5,114.6,132.5,114.6,132.5 M114.6,132.5c-20.2,0-37.7,16.5-37.7,37.7
		c0,21.1,16.5,38.6,37.7,38.6l0,0c21.1,0,37.7-16.5,37.7-38.6C153.2,149,135.7,132.5,114.6,132.5L114.6,132.5L114.6,132.5z"/>
</g>
</svg>
