<?xml version="1.0" encoding="utf-8"?>
<!-- Generator: Adobe Illustrator 25.2.3, SVG Export Plug-In . SVG Version: 6.00 Build 0)  -->
<svg version="1.1" id="Layer_1" xmlns="http://www.w3.org/2000/svg" xmlns:xlink="http://www.w3.org/1999/xlink" x="0px" y="0px"
	 viewBox="0 0 360 360" style="enable-background:new 0 0 360 360;" xml:space="preserve">
<style type="text/css">
	.st0{fill:#DB4F36;}
	.st1{fill:#FFFFFF;}
</style>
<circle class="st0" cx="180" cy="180" r="180"/>
<g>
	<path class="st1" d="M214.1,63.1c-4.3,5.2-8.6,8.6-12.9,12.9c-35.3-6.9-68,0-95.6,25c-25,21.5-37,49.9-36.2,82.6
		C70.3,244.7,122,292,184,288.6c20.7-0.9,40.5-8.6,57.7-21.5c16.4-12.9,29.3-29.3,36.2-49.1c7.7-19.8,8.6-40.5,4.3-61.1
		c4.3-4.3,8.6-8.6,12.9-12.9c5.2,15.5,6.9,31,5.2,46.5c-1.7,29.3-12.9,55.1-33.6,75.8c-44.8,47.3-116.2,51.7-167,11.2
		c-49.9-39.6-60.3-108.5-28.4-160.1C104.8,60.5,170.2,47.6,214.1,63.1L214.1,63.1z"/>
	<path class="st1" d="M240.8,163.8c6,1.7,11.2,3.4,17.2,6c0,0.9,0.9,2.6,0.9,4.3c0.9,12.1-0.9,24.1-5.2,35.3
		c-5.2,13.8-13.8,25.8-25.8,36.2c-6.9,5.2-15.5,10.3-24.1,12.9c-23.2,7.7-45.6,5.2-66.3-6c-12.1-6-21.5-15.5-29.3-26.7
		c-7.7-12.9-13.8-35.3-12.9-50.8c0.9-11.2,4.3-21.5,9.5-31.9c5.2-9.5,11.2-18.1,19.8-25c15.5-12.9,34.4-18.9,55.1-18.9
		c2.6,0,6,0.9,8.6,0.9c6,17.2,6,17.2,6,17.2c-31-6-56,2.6-73.2,29.3c-9.5,14.6-12.1,31-8.6,48.2c7.7,32.7,37,54.2,69.7,51.7
		c12.9-0.9,25-5.2,35.3-13.8c10.3-7.7,17.2-18.1,21.5-31C243.4,189.6,244.2,176.7,240.8,163.8L240.8,163.8z"/>
	<path class="st1" d="M228.7,140.5c-6,6-11.2,11.2-16.4,16.4c-9.5,9.5-18.9,18.9-28.4,28.4c-4.3,4.3-7.7,5.2-11.2,1.7
		c-4.3-2.6-4.3-8.6-0.9-12.1c10.3-10.3,20.7-20.7,30.1-31c5.2-4.3,10.3-9.5,15.5-13.8c-2.6-6-4.3-11.2-6.9-16.4
		c-1.7-3.4-3.4-6.9-5.2-10.3c-0.9-3.4-0.9-6.9,1.7-9.5c3.4-4.3,7.7-8.6,11.2-12.9c6.9-6.9,13.8-13.8,20.7-19.8
		c6.9-6.9,14.6-5.2,18.1,4.3c0.9,0,0.9,0.9,0.9,1.7c2.6,6.9,5.2,14.6,6.9,21.5c0.9,0.9,0.9,1.7,1.7,2.6c0.9,0.9,2.6,1.7,4.3,2.6
		c7.7,2.6,15.5,4.3,23.2,6.9c6.9,3.4,9.5,12.1,3.4,17.2c-10.3,11.2-20.7,21.5-31.9,31.9c-3.4,3.4-7.7,3.4-12.9,1.7
		c-6.9-3.4-12.9-6-19.8-9.5C231.3,141.4,230.5,141.4,228.7,140.5L228.7,140.5z M257.1,135.4c6.9-7.7,14.6-14.6,22.4-22.4
		c-8.6-2.6-17.2-5.2-25.8-8.6c-3.4-8.6-6-17.2-8.6-25c-7.7,6.9-14.6,13.8-22.4,21.5c3.4,7.7,6,14.6,9.5,22.4
		c0.9,0.9,1.7,1.7,2.6,1.7C241.6,128.5,249.4,131.9,257.1,135.4L257.1,135.4z"/>
	<path class="st1" d="M182.2,142.3c-3.4,3.4-6.9,6-9.5,9.5c-4.3,4.3-8.6,8.6-12.9,12.9c-7.7,8.6-7.7,21.5-1.7,30.1
		c6.9,10.3,25,15.5,37.9,0.9c5.2-6,11.2-11.2,17.2-17.2c0.9-0.9,1.7-0.9,2.6-1.7c4.3,9.5-4.3,28.4-14.6,36.2
		c-18.1,12.9-39.6,9.5-52.5-4.3c-12.9-12.9-15.5-34.4-4.3-49.9C152.1,146.6,171.9,138,182.2,142.3L182.2,142.3z"/>
</g>
</svg>
