<?xml version="1.0" encoding="utf-8"?>
<!-- Generator: Adobe Illustrator 25.2.3, SVG Export Plug-In . SVG Version: 6.00 Build 0)  -->
<svg version="1.1" id="Layer_1" xmlns="http://www.w3.org/2000/svg" xmlns:xlink="http://www.w3.org/1999/xlink" x="0px" y="0px"
	 viewBox="0 0 360 360" style="enable-background:new 0 0 360 360;" xml:space="preserve">
<style type="text/css">
	.st0{fill:#E8B138;}
	.st1{fill:#FFFFFF;}
</style>
<circle class="st0" cx="180" cy="180" r="180"/>
<g>
	<path class="st1" d="M180,305c-4.3,0-8.6,0-12.9,0c-8.6-0.9-13.8-5.2-15.5-13.8c-0.9-2.6-1.7-4.3-4.3-6c-4.3-2.6-6.9-6-8.6-11.2
		c0-3.4-0.9-6-1.7-8.6c0-2.6-0.9-4.3-2.6-6c-4.3-3.4-6-8.6-6-13.8c0-10.3-3.4-18.1-10.3-25c-9.5-9.5-16.4-19.8-21.5-31.9
		c-17.2-38.7-6-85.2,26.7-111.1c13.8-11.2,29.3-18.1,45.6-19.8c25.8-3.4,48.2,3.4,68,19.8c20.7,16.4,31.9,37.9,34.4,64.6
		c2.6,31-7.7,57.7-30.1,78.4c-6,6.9-9.5,13.8-9.5,23.2c0.9,6-1.7,11.2-6,16.4c-1.7,0.9-1.7,2.6-2.6,3.4c-0.9,3.4-0.9,6-1.7,9.5
		c-0.9,6-4.3,9.5-8.6,12.9c-2.6,0.9-3.4,2.6-4.3,5.2c-1.7,9.5-6.9,13.8-16.4,13.8C187.7,305,183.4,305,180,305L180,305L180,305z
		 M180,251.6L180,251.6c10.3,0,21.5,0,31.9,0c5.2,0,7.7-2.6,7.7-7.7c0-0.9,0-0.9,0-1.7c0-11.2,3.4-20.7,11.2-28.4
		c2.6-2.6,5.2-4.3,6.9-6.9c18.1-20.7,24.1-43.9,19.8-69.7c-5.2-36.2-37-68.9-80.1-67.2c-19.8,0.9-37.9,7.7-51.7,22.4
		c-21.5,21.5-28.4,47.4-22.4,77.5c3.4,16.4,11.2,30.1,24.1,42.2c7.7,7.7,12.1,16.4,12.9,28.4c0,1.7,0,3.4,0,5.2c0.9,3.4,2.6,5.2,6,6
		c0.9,0,2.6,0,4.3,0C160.2,251.6,169.7,251.6,180,251.6L180,251.6z M180.9,264.5c-8.6,0-17.2,0-25.8,0c-0.9,0-1.7-0.9-3.4,0
		c-0.9,0-1.7,0.9-1.7,1.7c0,5.2,2.6,9.5,7.7,9.5c14.6,0,29.3,0,43.9,0c5.2,0,6.9-2.6,7.7-7.7c0.9-3.4,0.9-3.4-3.4-3.4
		C197.2,263.7,189.5,264.5,180.9,264.5L180.9,264.5z M180,287.8L180,287.8c-4.3,0-8.6,0-12.9,0c-0.9,0-2.6,0.9-3.4,1.7
		c0.9,0.9,1.7,1.7,3.4,2.6c0,0.9,1.7,0.9,2.6,0.9c6.9,0,13.8,0,20.7,0c1.7-0.9,3.4-0.9,5.2-1.7c0,0,0-1.7,0.9-2.6
		c0,0-1.7-0.9-2.6-0.9C189.5,287.8,185.2,287.8,180,287.8L180,287.8z"/>
	<path class="st1" d="M69.8,74.2c0-6,4.3-9.5,8.6-6.9c4.3,3.4,7.7,6.9,11.2,10.3c1.7,2.6,1.7,6-0.9,8.6c-1.7,1.7-4.3,2.6-6.9,0.9
		c-4.3-3.4-7.7-6.9-11.2-10.3C69.8,75.9,69.8,74.2,69.8,74.2L69.8,74.2z"/>
	<path class="st1" d="M90.4,217.2c0,0.9-0.9,2.6-1.7,3.4c-2.6,3.4-6,6-9.5,8.6c-2.6,2.6-6,2.6-8.6,0c-1.7-2.6-1.7-6,0.9-8.6
		c3.4-3.4,6-6.9,10.3-9.5C85.3,208.6,90.4,211.1,90.4,217.2L90.4,217.2z"/>
	<path class="st1" d="M290.2,224.1c0,6-4.3,8.6-8.6,6c-3.4-2.6-7.7-6-11.2-10.3c-1.7-1.7-1.7-5.2,0-6.9c2.6-2.6,5.2-3.4,7.7-1.7
		c4.3,3.4,7.7,6.9,11.2,10.3C290.2,222.3,290.2,224.1,290.2,224.1L290.2,224.1z"/>
	<path class="st1" d="M269.6,80.3c0-0.9,0.9-2.6,1.7-3.4c3.4-3.4,6-6,9.5-8.6c2.6-1.7,6-1.7,8.6,0.9c1.7,1.7,1.7,6.9-0.9,8.6
		c-3.4,3.4-6,6-9.5,9.5c-2.6,1.7-4.3,0.9-6.9,0C270.4,85.4,269.6,83.7,269.6,80.3L269.6,80.3z"/>
	<path class="st1" d="M66.3,141.4c1.7,0,3.4,0,6,0c2.6,0.9,4.3,2.6,4.3,6c0,3.4-1.7,6-4.3,6c-4.3,0-7.7,0-11.2,0
		c-3.4,0-5.2-2.6-5.2-6c0-2.6,1.7-5.2,5.2-6C62.9,141.4,64.6,141.4,66.3,141.4L66.3,141.4L66.3,141.4z"/>
	<path class="st1" d="M293.7,141.4c1.7,0,3.4,0,4.3,0c3.4,0,6,2.6,6,6c0,2.6-1.7,6-5.2,6c-3.4,0-6.9,0-10.3,0c-3.4,0-5.2-2.6-5.2-6
		c0-3.4,1.7-6,5.2-6C290.2,141.4,291.9,141.4,293.7,141.4L293.7,141.4z"/>
	<path class="st1" d="M129.2,124.2c-4.3,0.9-7.7-4.3-5.2-9.5c4.3-6.9,9.5-12.9,15.5-17.2c6.9-6,14.6-9.5,22.4-12.1
		c4.3-0.9,7.7,0.9,8.6,4.3c0.9,3.4-0.9,6.9-4.3,7.7c-9.5,3.4-17.2,7.7-24.1,14.6c-2.6,2.6-5.2,6-6.9,8.6
		C133.5,123.3,131.8,125,129.2,124.2L129.2,124.2z"/>
	<path class="st1" d="M115.4,138.8c0-5.2,2.6-7.7,6.9-7.7c2.6,0,5.2,3.4,5.2,6.9c0,4.3-2.6,8.6-6.9,8.6
		C117.1,146.6,115.4,143.1,115.4,138.8L115.4,138.8z"/>
</g>
</svg>
