<?xml version="1.0" encoding="utf-8"?>
<!-- Generator: Adobe Illustrator 25.2.3, SVG Export Plug-In . SVG Version: 6.00 Build 0)  -->
<svg version="1.1" id="Layer_1" xmlns="http://www.w3.org/2000/svg" xmlns:xlink="http://www.w3.org/1999/xlink" x="0px" y="0px"
	 viewBox="0 0 360 360" style="enable-background:new 0 0 360 360;" xml:space="preserve">
<style type="text/css">
	.st0{fill:#BFC5CB;}
	.st1{fill:#FFFFFF;}
</style>
<circle class="st0" cx="180" cy="180" r="180"/>
<g>
	<path class="st1" d="M183.9,283c-16.5,0-36.1-3.9-54.2-14.9c-3.1-1.6-5.5-1.6-8.6,0c-11,4.7-22.8,8.6-33.8,13.4
		c-4.7,2.4-9.4,1.6-12.6-1.6c-3.9-3.9-3.9-7.9-1.6-12.6c4.7-11.8,8.6-22.8,13.4-34.6c1.6-2.4,1.6-4.7,0-7.1
		c-39.3-68.3,3.1-156.3,80.9-167.3c59.7-9.4,117.8,29.8,128.8,91.9c7.1,41.6-6.3,77-37.7,104.5C238.9,272.8,214.5,281.4,183.9,283
		L183.9,283z M100.6,253.9c6.3-2.4,12.6-4.7,18.1-7.1c6.3-3.1,11.8-2.4,17.3,1.6c22,14.1,47.1,17.3,72.3,11
		c48.7-13.4,77-60.5,66.8-109.9c-10.2-47.9-59.7-80.1-107.6-70.7c-23.6,4.7-42.4,16.5-56.5,36.1c-23.6,31.4-25.1,71.5-3.9,105.2
		c3.1,4.7,3.9,8.6,1.6,13.4C106.1,239.8,103,246.9,100.6,253.9L100.6,253.9z"/>
	<path class="st1" d="M174.5,159.7c-3.9,0-6.3,0-9.4,0c-4.7-0.8-8.6-1.6-10.2-6.3c-1.6-3.1-1.6-7.1,0.8-10.2
		c2.4-1.6,5.5-3.9,8.6-3.9c6.3-0.8,13.4,0,20.4,0c6.3,0,10.2,4.7,10.2,11.8c0,23.6,0,47.1,0,70.7c0,2.4,0,5.5,0,8.6
		c0,7.1-3.9,11-10.2,11s-10.2-3.9-10.2-11c0-22,0-44,0-66C174.5,162.8,174.5,161.3,174.5,159.7L174.5,159.7z"/>
	<path class="st1" d="M184.7,107.9c5.5,0.8,10.2,5.5,10.2,11s-4.7,10.2-10.2,10.2c-5.5-0.8-10.2-5.5-10.2-11
		C174.5,112.6,179.2,107.9,184.7,107.9L184.7,107.9z"/>
</g>
</svg>
