<?xml version="1.0" encoding="utf-8"?>
<!-- Generator: Adobe Illustrator 25.2.3, SVG Export Plug-In . SVG Version: 6.00 Build 0)  -->
<svg version="1.1" id="Layer_1" xmlns="http://www.w3.org/2000/svg" xmlns:xlink="http://www.w3.org/1999/xlink" x="0px" y="0px"
	 viewBox="0 0 360 360" style="enable-background:new 0 0 360 360;" xml:space="preserve">
<style type="text/css">
	.st0{fill:#BFC5CB;}
	.st1{fill:#FFFFFF;}
</style>
<circle class="st0" cx="180" cy="180" r="180"/>
<g>
	<path class="st1" d="M112.9,180.1c0-32.7,0-66.3,0-99c0-6.9,0.9-12.9,6-18.1c4.3-3.4,8.6-6,14.6-6c31,0,62,0,93,0
		c9.5,0,20.7,7.8,20.7,21.5c0,0.9,0,1.7,0,2.6c0,66.3,0,133.5,0,199.8c0,6.9-1.7,13.8-6.9,18.9c-4.3,3.4-8.6,5.2-13.8,5.2
		c-31,0-62,0-93,0c-11.2,0-20.7-9.5-20.7-19.8c0-1.7,0-4.3,0-6C112.9,246.4,112.9,213.7,112.9,180.1L112.9,180.1z M122.3,178.4
		c0,24.1,0,48.2,0,72.3c0,5.2,0,5.2,4.3,5.2c35.3,0,71.5,0,106.8,0c4.3,0,4.3,0,4.3-4.3c0-49.1,0-97.3,0-146.4c0-4.3,0-4.3-4.3-4.3
		c-35.3,0-70.6,0-106.8,0c-4.3,0-4.3,0-4.3,4.3C122.3,129.3,122.3,153.4,122.3,178.4L122.3,178.4z M125.8,265.4
		c-2.6,0-3.4,0.9-3.4,3.4c0,5.2,0,9.5,0,14.6c0,6.9,5.2,11.2,12.1,11.2c30.1,0,61.1,0,91.3,0c6.9,0,12.1-4.3,12.1-11.2
		c0-5.2-0.9-9.5,0-14.6c0-2.6-0.9-3.4-4.3-3.4C215.3,265.4,137.8,265.4,125.8,265.4L125.8,265.4z M234.3,91.4c2.6,0,3.4-0.9,3.4-3.4
		c0-3.4,0-6.9,0-9.5c0-6.9-5.2-11.2-11.2-11.2c-31,0-62,0-93,0c-6,0-11.2,4.3-11.2,11.2c0,2.6,0,6,0,8.6c0,4.3,0,4.3,4.3,4.3
		C144.7,91.4,217.9,91.4,234.3,91.4L234.3,91.4z"/>
	<path class="st1" d="M180,267.1c6.9,0,12.9,6,12.9,12.9s-6,12.9-12.9,12.9s-12.9-6-12.9-12.9S173.1,267.1,180,267.1L180,267.1z
		 M182.6,280c0-1.7-0.9-2.6-2.6-2.6c-2.6,0-3.4,0.9-3.4,2.6c0,2.6,1.7,3.4,3.4,3.4C181.7,283.5,182.6,282.6,182.6,280L182.6,280z"/>
	<path class="st1" d="M180,82.8c-4.3,0-8.6,0-13.8,0c-1.7,0-2.6,0-2.6-2.6c-0.9-6.9-0.9-6.9,6-6.9c7.8,0,15.5,0.9,23.2,0
		c3.4,0,4.3,0.9,3.4,3.4c0,1.7,0,2.6,0,3.4c0.9,2.6-0.9,2.6-2.6,2.6C189.5,82.8,184.3,82.8,180,82.8L180,82.8z"/>
</g>
</svg>
