<?xml version="1.0" encoding="utf-8"?>
<!-- Generator: Adobe Illustrator 25.2.3, SVG Export Plug-In . SVG Version: 6.00 Build 0)  -->
<svg version="1.1" id="Layer_1" xmlns="http://www.w3.org/2000/svg" xmlns:xlink="http://www.w3.org/1999/xlink" x="0px" y="0px"
	 viewBox="0 0 360 360" style="enable-background:new 0 0 360 360;" xml:space="preserve">
<style type="text/css">
	.st0{fill:#8166A6;}
	.st1{fill:#FFFFFF;}
</style>
<circle class="st0" cx="180" cy="180" r="180"/>
<g>
	<path class="st1" d="M100.6,195.2c-5.6-1.6-11.2-2.4-16-4c-12.8-5.6-19.3-16-20.1-30.5c0-20.9,0-41.7,0-62.6
		c0.8-18.4,16-33.7,34.5-33.7c34.5,0,69,0,103.5,0c16.8,0.8,35.3,10.4,35.3,36.9c0,19.3,0,38.5,0,57.8c0,8-2.4,16-6.4,22.5
		c-4.8,8-12,12.8-20.9,12.8c-20.1,0-39.3,0-59.4,0c-3.2,0-5.6,0.8-8,3.2c-9.6,7.2-19.3,15.2-28.9,22.5c-3.2,2.4-5.6,4-9.6,2.4
		c-3.2-1.6-4-4.8-4-8.8C100.6,207.2,100.6,201.6,100.6,195.2L100.6,195.2z M115,200.8c8-5.6,15.2-11.2,22.5-17.6
		c2.4-2.4,5.6-3.2,8.8-3.2c20.9,0,40.9,0,61,0c6.4,0,10.4-2.4,12.8-8c1.6-3.2,3.2-7.2,3.2-11.2c0-20.9,0-41.7,0-62.6
		c0-8.8-5.6-15.2-14.4-17.6c-3.2-0.8-6.4-1.6-9.6-1.6c-31.3,0-63.4,0-94.7,0c-2.4,0-4.8,0-7.2,0.8c-8,0.8-13.6,4-16,12
		c-1.6,4-2.4,8-2.4,12c0,19.3,0,38.5,0.8,57.8c0,8,4,14.4,12,16.8c4.8,0.8,9.6,1.6,14.4,1.6c6.4,0.8,8.8,3.2,8.8,8.8
		C115,192.8,115,196,115,200.8L115,200.8z"/>
	<path class="st1" d="M245,273c0-4.8,0-8,0-12c0-5.6,2.4-8,8.8-8.8c4,0,8,0,12-0.8c9.6-2.4,14.4-8.8,15.2-18.4
		c0-20.9,0-40.9-0.8-61.8c0-12-8-19.3-20.1-20.1c-5.6,0-8-3.2-8-7.2c0-4.8,3.2-7.2,8.8-7.2c20.1,0.8,34.5,15.2,34.5,36.1
		c0,19.3,0,38.5,0,58.6s-12.8,33.7-33.7,35.3c-0.8,0-1.6,0-2.4,0c0,6.4,0,12.8,0,19.3c0,1.6,0,3.2-0.8,4.8
		c-1.6,4.8-7.2,6.4-11.2,3.2c-10.4-8-20.9-16.8-30.5-24.9c-2.4-1.6-4.8-2.4-7.2-2.4c-18.4,0-36.9,0-55.3,0
		c-17.6,0.8-26.5-10.4-29.7-22.5c-0.8-4-1.6-8-2.4-12c-0.8-4.8,2.4-8,6.4-8.8c4.8,0,8,2.4,8,8c0.8,4,0.8,7.2,2.4,11.2
		c2.4,7.2,6.4,9.6,13.6,9.6c20.1,0,39.3,0,58.6,0c4.8,0,9.6,1.6,12.8,4.8C230.5,262.6,237.8,267.4,245,273L245,273z"/>
</g>
</svg>
